# xmcd
#
# Track frame offsets: 
#        150
#        13813
#        28185
#        45821
#        56392
#        68693
#        80760
#        94348
#        109085
#        122212
#        135085
#        148740
#        161428
#        173590
#        187631
#        200864
#        212677
#        226775
#        240461
#        251692
#
# Disc length: 3560 seconds
#
# Revision: 0
# Processed by: cddbd v1.5.2PL0 Copyright (c) Steve Scherf et al.
# Submitted via: ExactAudioCopyFreeDBPlugin 1.0
#
DISCID=060de614
DTITLE=Various Artist - The RPM Blues Story - CD1
DYEAR=2013
DGENRE=Blues
TTITLE0=B.B. King - Three O'Clock Blues
TTITLE1=Lowell Fulson - Doin' Time Blues
TTITLE2=Howlin' Wolf - Crying At Daybreak
TTITLE3=Lightnin' Hopkins - Don't Keep My Baby Long
TTITLE4=Jimmy Nelson - Fine Little Honey Dripper
TTITLE5=Johnny 'Guitar' Watson - Too Tired
TTITLE6='Little Eddie' Kirkland - It's Time For Lovin' To Be Done
TTITLE7=Roscoe Gordon - City Women
TTITLE8=Drifting Slim - My Sweet Woman
TTITLE9=Johnny Wright and Ike Turner's Orchestra - The World Is Yours
TTITLE10='Little George' Smith - Telephone Blues
TTITLE11=B.B. King - I Wonder
TTITLE12=Howlin' Wolf - Passing By Blues
TTITLE13=Jimmy Nelson - T-99 Blues
TTITLE14=Sunny Blair - Five Foot Three Blues
TTITLE15=Lightnin' Hopkins - Beggin' You To Stay
TTITLE16='Little George' Smith - Blues Stay Away
TTITLE17=Jimmy McCracklin - Your Heart Ain't Right
TTITLE18=Roscoe Gordon - Dime A Dozen
TTITLE19=Johnny 'Guitar' Watson - Three Hours Past Midnight
EXTD=
EXTT0=
EXTT1=
EXTT2=
EXTT3=
EXTT4=
EXTT5=
EXTT6=
EXTT7=
EXTT8=
EXTT9=
EXTT10=
EXTT11=
EXTT12=
EXTT13=
EXTT14=
EXTT15=
EXTT16=
EXTT17=
EXTT18=
EXTT19=
PLAYORDER=
